[img]http://img267.imageshack.us/img267/9084/tedbr.jpg[/img]

[b][size=200][color=black]PLOT[/color][/size][/b]

[code]As the result of a childhood wish, John Bennett's teddy bear, Ted, 
came to life and has been by John's side ever since - a friendship that's tested when Lori, 
John's girlfriend of four years, wants more from their relationship. [/code]

[b][size=200][color=black]IMDB[/color][/size][/b]

[code]http://www.imdb.com/title/tt1637725/[/code]

[b][size=200][color=black]MOVIE INFO[/color][/size][/b]

[code]Ted [2012] BRRip x264 AAC-V3nom

Format                                   : MPEG-4
Format profile                           : Base Media / Version 2
Codec ID                                 : mp42
File size                                : 348 MiB
Duration                                 : 1h 46mn
Overall bit rate mode                    : Variable
Overall bit rate                         : 459 Kbps
Encoded date                             : UTC 2012-11-11 18:19:02
Tagged date                              : UTC 2012-11-11 18:51:06

Video
ID                                       : 1
Format                                   : AVC
Format/Info                              : Advanced Video Codec
Format profile                           : Main@L3.0
Format settings, CABAC                   : Yes
Format settings, ReFrames                : 4 frames
Codec ID                                 : avc1
Codec ID/Info                            : Advanced Video Coding
Duration                                 : 1h 46mn
Bit rate mode                            : Variable
Bit rate                                 : 329 Kbps
Width                                    : 640 pixels
Height                                   : 352 pixels
Display aspect ratio                     : 16:9
Frame rate mode                          : Variable
Frame rate                               : 23.976 fps
Minimum frame rate                       : 23.974 fps
Maximum frame rate                       : 23.981 fps
Color space                              : YUV
Chroma subsampling                       : 4:2:0
Bit depth                                : 8 bits
Scan type                                : Progressive
Bits/(Pixel*Frame)                       : 0.061
Stream size                              : 247 MiB (71%)
Writing library                          : x264 

Audio
ID                                       : 2
Format                                   : AAC
Format/Info                              : Advanced Audio Codec
Format profile                           : LC
Codec ID                                 : 40
Duration                                 : 1h 46mn
Bit rate mode                            : Variable
Bit rate                                 : 128 Kbps
Maximum bit rate                         : 147 Kbps
Channel(s)                               : 2 channels
Channel positions                        : Front: L R
Sampling rate                            : 48.0 KHz
Compression mode                         : Lossy
Delay relative to video                  : 83ms
Stream size                              : 97.1 MiB (28%)
Encoded date                             : UTC 2012-11-11 18:19:02
Tagged date                              : UTC 2012-11-11 18:51:01[/code]

[b][size=200][color=black]SOURCE[/color][/size][/b]

[code]Ted[2012]BRRip XviD-ETRG(Thanks)[/code]

[b][size=200][color=black]SCREENSHOTS[/color][/size][/b]

[img]http://img59.imageshack.us/img59/1813/ted2012brripx264aacv3no.jpg[/img]

[img]http://kastatic.com/i2/users/133df62bbf28e62494bb17fe11078f1a.gif[/img][img]http://kastatic.com/i2/users/133df62bbf28e62494bb17fe11078f1a.gif[/img]